<svg xmlns="http://www.w3.org/2000/svg" width="1200" height="330" viewBox="0 0 1200 330" role="img" aria-labelledby="title desc"><title id="title">Verified technical stack</title><desc id="desc">Technologies grouped by system function across AI, perception, retrieval, applications, data, and delivery.</desc><rect width="1200" height="330" rx="26" fill="#111923"/><text x="52" y="54" fill="#C7D2DC" font-family="Consolas, monospace" font-size="18" letter-spacing="3">TECHNICAL STACK // BY FUNCTION</text><g font-family="Segoe UI, Arial"><g transform="translate(52 90)"><rect width="340" height="92" rx="18" fill="#223240"/><text x="22" y="33" fill="#63D7C7" font-size="18" font-weight="700">AI / ML</text><text x="22" y="64" fill="#C8D2DB" font-size="17">Python · PyTorch · TensorFlow · Scikit-learn</text></g><g transform="translate(430 90)"><rect width="340" height="92" rx="18" fill="#263746"/><text x="22" y="33" fill="#76B7F6" font-size="18" font-weight="700">PERCEPTION</text><text x="22" y="64" fill="#C8D2DB" font-size="17">YOLO · OpenCV · ONNX Runtime</text></g><g transform="translate(808 90)"><rect width="340" height="92" rx="18" fill="#2B3A49"/><text x="22" y="33" fill="#AA8CFF" font-size="18" font-weight="700">RAG / LLM</text><text x="22" y="64" fill="#C8D2DB" font-size="17">BGE · ChromaDB · BM25 · RRF · LLM APIs</text></g><g transform="translate(52 208)"><rect width="340" height="80" rx="18" fill="#263746"/><text x="22" y="31" fill="#76B7F6" font-size="18" font-weight="700">APPLICATION</text><text x="22" y="59" fill="#C8D2DB" font-size="17">FastAPI · REST · HTML/CSS/JS · Flutter</text></g><g transform="translate(430 208)"><rect width="340" height="80" rx="18" fill="#223240"/><text x="22" y="31" fill="#63D7C7" font-size="18" font-weight="700">DATA / PERSISTENCE</text><text x="22" y="59" fill="#C8D2DB" font-size="17">Firebase · SQLAlchemy · SQLite / SQL</text></g><g transform="translate(808 208)"><rect width="340" height="80" rx="18" fill="#2B3A49"/><text x="22" y="31" fill="#AA8CFF" font-size="18" font-weight="700">DELIVERY</text><text x="22" y="59" fill="#C8D2DB" font-size="17">Git · GitHub · Docker · Linux</text></g></g></svg>